<svg xmlns="http://www.w3.org/2000/svg" xmlns:xlink="http://www.w3.org/1999/xlink" width="104" height="104" viewBox="0 0 104 104">
  <defs>
    <clipPath id="clip-path">
      <rect id="Rechteck_2122" data-name="Rechteck 2122" width="104" height="104" transform="translate(0 0.348)" fill="none" stroke="#fff" stroke-width="3"/>
    </clipPath>
  </defs>
  <g id="Gruppe_8432" data-name="Gruppe 8432" transform="translate(-0.234 -0.348)">
    <g id="Gruppe_8431" data-name="Gruppe 8431" transform="translate(0.235)" clip-path="url(#clip-path)">
      <path id="Pfad_14280" data-name="Pfad 14280" d="M22.59,3H11.707A8.7,8.7,0,0,0,3,11.707V22.59" transform="translate(9.928 10.06)" fill="none" stroke="#fff" stroke-linecap="round" stroke-linejoin="round" stroke-width="3"/>
      <path id="Pfad_14281" data-name="Pfad 14281" d="M3,16.5V27.383a8.7,8.7,0,0,0,8.707,8.707H22.59" transform="translate(9.928 55.33)" fill="none" stroke="#fff" stroke-linecap="round" stroke-linejoin="round" stroke-width="3"/>
      <path id="Pfad_14282" data-name="Pfad 14282" d="M16.5,36.09H27.383a8.7,8.7,0,0,0,8.707-8.707V16.5" transform="translate(55.198 55.33)" fill="none" stroke="#fff" stroke-linecap="round" stroke-linejoin="round" stroke-width="3"/>
      <path id="Pfad_14283" data-name="Pfad 14283" d="M36.09,22.59V11.707A8.7,8.7,0,0,0,27.383,3H16.5" transform="translate(55.198 10.06)" fill="none" stroke="#fff" stroke-linecap="round" stroke-linejoin="round" stroke-width="3"/>
      <line id="Linie_815" data-name="Linie 815" y2="7.257" transform="translate(52.108 30.473)" fill="none" stroke="#fff" stroke-linecap="round" stroke-linejoin="round" stroke-width="3"/>
      <line id="Linie_816" data-name="Linie 816" y2="7.257" transform="translate(52.108 66.751)" fill="none" stroke="#fff" stroke-linecap="round" stroke-linejoin="round" stroke-width="3"/>
      <line id="Linie_817" data-name="Linie 817" x1="5.133" y2="5.133" transform="translate(36.715 62.5)" fill="none" stroke="#fff" stroke-linecap="round" stroke-linejoin="round" stroke-width="3"/>
      <line id="Linie_818" data-name="Linie 818" x1="5.133" y2="5.128" transform="translate(62.367 36.848)" fill="none" stroke="#fff" stroke-linecap="round" stroke-linejoin="round" stroke-width="3"/>
      <line id="Linie_819" data-name="Linie 819" x1="7.257" transform="translate(30.34 52.24)" fill="none" stroke="#fff" stroke-linecap="round" stroke-linejoin="round" stroke-width="3"/>
      <line id="Linie_820" data-name="Linie 820" x1="7.257" transform="translate(66.617 52.24)" fill="none" stroke="#fff" stroke-linecap="round" stroke-linejoin="round" stroke-width="3"/>
      <line id="Linie_821" data-name="Linie 821" x2="5.133" y2="5.128" transform="translate(36.716 36.848)" fill="none" stroke="#fff" stroke-linecap="round" stroke-linejoin="round" stroke-width="3"/>
      <line id="Linie_822" data-name="Linie 822" x2="5.133" y2="5.133" transform="translate(62.369 62.5)" fill="none" stroke="#fff" stroke-linecap="round" stroke-linejoin="round" stroke-width="3"/>
      <path id="Pfad_14284" data-name="Pfad 14284" d="M37.686,23.177a14.51,14.51,0,1,1-14.51-14.51A14.505,14.505,0,0,1,37.686,23.177Z" transform="translate(28.931 29.063)" fill="none" stroke="#fff" stroke-linecap="round" stroke-linejoin="round" stroke-width="3"/>
    </g>
  </g>
</svg>
