<?xml version="1.0" encoding="UTF-8"?>
<svg id="Ebene_2" data-name="Ebene 2" xmlns="http://www.w3.org/2000/svg" viewBox="0 0 24 24">
  <defs>
    <style>
      .cls-1, .cls-2 {
        fill: none;
      }

      .cls-2 {
        stroke: #323232;
        stroke-linecap: round;
        stroke-linejoin: round;
        stroke-width: 1.5px;
      }
    </style>
  </defs>
  <g id="Icons">
    <g>
      <rect class="cls-1" width="24" height="24"/>
      <g>
        <path class="cls-2" d="M7.5,3h-2.5c-1.1,0-2,.9-2,2v2.5"/>
        <path class="cls-2" d="M3,16.5v2.5c0,1.1.9,2,2,2h2.5"/>
        <path class="cls-2" d="M16.5,21h2.5c1.1,0,2-.9,2-2v-2.5"/>
        <path class="cls-2" d="M21,7.5v-2.5c0-1.1-.9-2-2-2h-2.5"/>
        <line class="cls-2" x1="12" y1="7" x2="12" y2="8.67"/>
        <line class="cls-2" x1="12" y1="15.33" x2="12" y2="17"/>
        <line class="cls-2" x1="9.64" y1="14.36" x2="8.46" y2="15.54"/>
        <line class="cls-2" x1="15.54" y1="8.46" x2="14.36" y2="9.64"/>
        <line class="cls-2" x1="8.67" y1="12" x2="7" y2="12"/>
        <line class="cls-2" x1="17" y1="12" x2="15.33" y2="12"/>
        <line class="cls-2" x1="8.46" y1="8.46" x2="9.64" y2="9.64"/>
        <line class="cls-2" x1="14.36" y1="14.36" x2="15.54" y2="15.54"/>
        <circle class="cls-2" cx="12" cy="12" r="3.33"/>
      </g>
    </g>
  </g>
</svg>