<?xml version="1.0" encoding="UTF-8"?>
<svg id="Ebene_2" data-name="Ebene 2" xmlns="http://www.w3.org/2000/svg" viewBox="0 0 24 24">
  <defs>
    <style>
      .cls-1, .cls-2 {
        fill: none;
      }

      .cls-2 {
        stroke: #323232;
        stroke-linecap: round;
        stroke-linejoin: round;
        stroke-width: 1.5px;
      }
    </style>
  </defs>
  <g id="Icons">
    <g>
      <g>
        <path class="cls-2" d="M17,12h3c.55,0,1,.45,1,1v6c0,1.1-.9,2-2,2h0c-1.1,0-2-.9-2-2v-7h0Z"/>
        <line class="cls-2" x1="7" y1="8" x2="13" y2="8"/>
        <line class="cls-2" x1="7" y1="11.87" x2="13" y2="11.87"/>
        <line class="cls-2" x1="7" y1="16.06" x2="10" y2="16.06"/>
        <path class="cls-2" d="M17,12v-7c0-.55-.45-1-1-1H4c-.55,0-1,.45-1,1v14c0,1.1.9,2,2,2h14"/>
      </g>
      <rect class="cls-1" width="24" height="24"/>
    </g>
  </g>
</svg>